# xmcd
#
# Track frame offsets: 
#        150
#        22888
#        48324
#        67146
#        83889
#        104583
#        123938
#        143223
#        164153
#        180048
#        201199
#        220801
#        240037
#
# Disc length: 3475 seconds
#
# Revision: 0
# Processed by: cddbd v1.5.2PL0 Copyright (c) Steve Scherf et al.
# Submitted via: ExactAudioCopyFreeDBPlugin 1.0
#
DISCID=ae0d910d
DTITLE=群星 - 试音宝典第二季女声篇
DYEAR=1900
DGENRE=A Cappella
TTITLE0=刘紫玲 - 星星是我看你的眼睛
TTITLE1=小月 - 谁的眼泪在飞
TTITLE2=菲尔 - 乌兰巴托之夜
TTITLE3=甘雅丹 - 吉祥草原
TTITLE4=甘雅丹 - 心之寻
TTITLE5=晓月 - 原谅一次
TTITLE6=杨蔓 - 爱上别人的人
TTITLE7=古依 - 你会不会后悔离开我
TTITLE8=粟雅馨 - 犯错
TTITLE9=小月 - 爱不在就放手
TTITLE10=刘紫玲 - 梅花雪
TTITLE11=小月 - 漫步人生
TTITLE12=甘雅丹 - 吉祥的酥油灯
EXTD=
EXTT0=
EXTT1=
EXTT2=
EXTT3=
EXTT4=
EXTT5=
EXTT6=
EXTT7=
EXTT8=
EXTT9=
EXTT10=
EXTT11=
EXTT12=
PLAYORDER=
